<svg width="678" height="231" viewBox="0 0 678 231" fill="none" xmlns="http://www.w3.org/2000/svg">
<mask id="mask0_3_22" style="mask-type:alpha" maskUnits="userSpaceOnUse" x="38" y="61" width="96" height="96">
<rect x="38.8223" y="110.178" width="68.1763" height="65.2119" transform="rotate(-45 38.8223 110.178)" fill="#D26E6E"/>
</mask>
<g mask="url(#mask0_3_22)">
<circle cx="80" cy="68" r="5" fill="#1D1D1D"/>
<circle cx="77" cy="150" r="5" fill="#1D1D1D"/>
<circle cx="120" cy="108" r="5" fill="#1D1D1D"/>
</g>
<mask id="mask1_3_22" style="mask-type:alpha" maskUnits="userSpaceOnUse" x="212" y="1" width="11" height="8">
<path d="M216 9L223 1.5H212L216 9Z" fill="#D9D9D9"/>
</mask>
<g mask="url(#mask1_3_22)">
<circle cx="224" cy="1" r="7" fill="#1D1D1D"/>
</g>
<path d="M224 1L120 108L80 68L146 1H224Z" stroke="#1D1D1D"/>
<path d="M148 0.5L39 110.5L0 70L69 0.5H148Z" fill="#1D1D1D"/>
<path d="M243.5 230.5L120 108L77.5 150.5L154.5 230L243.5 230.5Z" stroke="#1D1D1D"/>
<path d="M158.5 230.5L0 70V152.5L77 230.5H158.5Z" fill="#1D1D1D"/>
<path d="M258.273 160V66.9091H269.545V113.091H270.636L312.455 66.9091H327.182L288.091 108.909L327.182 160H313.545L281.182 116.727L269.545 129.818V160H258.273ZM363.557 161.455C357.254 161.455 351.723 159.955 346.966 156.955C342.239 153.955 338.542 149.758 335.875 144.364C333.239 138.97 331.92 132.667 331.92 125.455C331.92 118.182 333.239 111.833 335.875 106.409C338.542 100.985 342.239 96.7727 346.966 93.7727C351.723 90.7727 357.254 89.2727 363.557 89.2727C369.86 89.2727 375.375 90.7727 380.102 93.7727C384.86 96.7727 388.557 100.985 391.193 106.409C393.86 111.833 395.193 118.182 395.193 125.455C395.193 132.667 393.86 138.97 391.193 144.364C388.557 149.758 384.86 153.955 380.102 156.955C375.375 159.955 369.86 161.455 363.557 161.455ZM363.557 151.818C368.345 151.818 372.284 150.591 375.375 148.136C378.466 145.682 380.754 142.455 382.239 138.455C383.723 134.455 384.466 130.121 384.466 125.455C384.466 120.788 383.723 116.439 382.239 112.409C380.754 108.379 378.466 105.121 375.375 102.636C372.284 100.152 368.345 98.9091 363.557 98.9091C358.769 98.9091 354.83 100.152 351.739 102.636C348.648 105.121 346.36 108.379 344.875 112.409C343.39 116.439 342.648 120.788 342.648 125.455C342.648 130.121 343.39 134.455 344.875 138.455C346.36 142.455 348.648 145.682 351.739 148.136C354.83 150.591 358.769 151.818 363.557 151.818ZM422.295 66.9091V160H411.568V66.9091H422.295ZM470.307 161.455C464.004 161.455 458.473 159.955 453.716 156.955C448.989 153.955 445.292 149.758 442.625 144.364C439.989 138.97 438.67 132.667 438.67 125.455C438.67 118.182 439.989 111.833 442.625 106.409C445.292 100.985 448.989 96.7727 453.716 93.7727C458.473 90.7727 464.004 89.2727 470.307 89.2727C476.61 89.2727 482.125 90.7727 486.852 93.7727C491.61 96.7727 495.307 100.985 497.943 106.409C500.61 111.833 501.943 118.182 501.943 125.455C501.943 132.667 500.61 138.97 497.943 144.364C495.307 149.758 491.61 153.955 486.852 156.955C482.125 159.955 476.61 161.455 470.307 161.455ZM470.307 151.818C475.095 151.818 479.034 150.591 482.125 148.136C485.216 145.682 487.504 142.455 488.989 138.455C490.473 134.455 491.216 130.121 491.216 125.455C491.216 120.788 490.473 116.439 488.989 112.409C487.504 108.379 485.216 105.121 482.125 102.636C479.034 100.152 475.095 98.9091 470.307 98.9091C465.519 98.9091 461.58 100.152 458.489 102.636C455.398 105.121 453.11 108.379 451.625 112.409C450.14 116.439 449.398 120.788 449.398 125.455C449.398 130.121 450.14 134.455 451.625 138.455C453.11 142.455 455.398 145.682 458.489 148.136C461.58 150.591 465.519 151.818 470.307 151.818ZM567.773 105.818L558.136 108.545C557.53 106.939 556.636 105.379 555.455 103.864C554.303 102.318 552.727 101.045 550.727 100.045C548.727 99.0455 546.167 98.5455 543.045 98.5455C538.773 98.5455 535.212 99.5303 532.364 101.5C529.545 103.439 528.136 105.909 528.136 108.909C528.136 111.576 529.106 113.682 531.045 115.227C532.985 116.773 536.015 118.061 540.136 119.091L550.5 121.636C556.742 123.152 561.394 125.47 564.455 128.591C567.515 131.682 569.045 135.667 569.045 140.545C569.045 144.545 567.894 148.121 565.591 151.273C563.318 154.424 560.136 156.909 556.045 158.727C551.955 160.545 547.197 161.455 541.773 161.455C534.652 161.455 528.758 159.909 524.091 156.818C519.424 153.727 516.47 149.212 515.227 143.273L525.409 140.727C526.379 144.485 528.212 147.303 530.909 149.182C533.636 151.061 537.197 152 541.591 152C546.591 152 550.561 150.939 553.5 148.818C556.47 146.667 557.955 144.091 557.955 141.091C557.955 138.667 557.106 136.636 555.409 135C553.712 133.333 551.106 132.091 547.591 131.273L535.955 128.545C529.561 127.03 524.864 124.682 521.864 121.5C518.894 118.288 517.409 114.273 517.409 109.455C517.409 105.515 518.515 102.03 520.727 99C522.97 95.9697 526.015 93.5909 529.864 91.8636C533.742 90.1364 538.136 89.2727 543.045 89.2727C549.955 89.2727 555.379 90.7879 559.318 93.8182C563.288 96.8485 566.106 100.848 567.773 105.818ZM605.739 161.636C601.314 161.636 597.299 160.803 593.693 159.136C590.087 157.439 587.223 155 585.102 151.818C582.981 148.606 581.92 144.727 581.92 140.182C581.92 136.182 582.708 132.939 584.284 130.455C585.86 127.939 587.966 125.97 590.602 124.545C593.239 123.121 596.148 122.061 599.33 121.364C602.542 120.636 605.769 120.061 609.011 119.636C613.254 119.091 616.693 118.682 619.33 118.409C621.996 118.106 623.936 117.606 625.148 116.909C626.39 116.212 627.011 115 627.011 113.273V112.909C627.011 108.424 625.784 104.939 623.33 102.455C620.905 99.9697 617.223 98.7273 612.284 98.7273C607.163 98.7273 603.148 99.8485 600.239 102.091C597.33 104.333 595.284 106.727 594.102 109.273L583.92 105.636C585.739 101.394 588.163 98.0909 591.193 95.7273C594.254 93.3333 597.587 91.6667 601.193 90.7273C604.83 89.7576 608.405 89.2727 611.92 89.2727C614.163 89.2727 616.739 89.5455 619.648 90.0909C622.587 90.6061 625.42 91.6818 628.148 93.3182C630.905 94.9545 633.193 97.4242 635.011 100.727C636.83 104.03 637.739 108.455 637.739 114V160H627.011V150.545H626.466C625.739 152.061 624.527 153.682 622.83 155.409C621.133 157.136 618.875 158.606 616.057 159.818C613.239 161.03 609.799 161.636 605.739 161.636ZM607.375 152C611.617 152 615.193 151.167 618.102 149.5C621.042 147.833 623.254 145.682 624.739 143.045C626.254 140.409 627.011 137.636 627.011 134.727V124.909C626.557 125.455 625.557 125.955 624.011 126.409C622.496 126.833 620.739 127.212 618.739 127.545C616.769 127.848 614.845 128.121 612.966 128.364C611.117 128.576 609.617 128.758 608.466 128.909C605.678 129.273 603.072 129.864 600.648 130.682C598.254 131.47 596.314 132.667 594.83 134.273C593.375 135.848 592.648 138 592.648 140.727C592.648 144.455 594.027 147.273 596.784 149.182C599.572 151.061 603.102 152 607.375 152ZM668.045 66.9091V160H657.318V66.9091H668.045Z" fill="#1D1D1D"/>
<mask id="mask2_3_22" style="mask-type:alpha" maskUnits="userSpaceOnUse" x="230" y="217" width="13" height="13">
<path d="M230 230H242.5L230 217.5V230Z" fill="#D9D9D9"/>
</mask>
<g mask="url(#mask2_3_22)">
<circle cx="243" cy="231" r="7" fill="#1D1D1D"/>
</g>
</svg>
